<svg width="140" height="140" viewBox="0 0 140 140" fill="none" xmlns="http://www.w3.org/2000/svg">
<path d="M95.5199 18.9574C102.283 18.9776 108.763 21.6731 113.545 26.4551C118.327 31.2372 121.022 37.7173 121.043 44.4801V95.5199C121.022 102.283 118.327 108.763 113.545 113.545C108.763 118.327 102.283 121.022 95.5199 121.043H44.4801C37.7173 121.022 31.2372 118.327 26.4551 113.545C21.6731 108.763 18.9776 102.283 18.9574 95.5199V44.4801C18.9776 37.7173 21.6731 31.2372 26.4551 26.4551C31.2372 21.6731 37.7173 18.9776 44.4801 18.9574H95.5199V18.9574ZM95.5199 8.75H44.4801C24.8281 8.75 8.75 24.8281 8.75 44.4801V95.5199C8.75 115.172 24.8281 131.25 44.4801 131.25H95.5199C115.172 131.25 131.25 115.172 131.25 95.5199V44.4801C131.25 24.8281 115.172 8.75 95.5199 8.75V8.75Z" fill="white"/>
<path d="M103.176 44.4801C101.662 44.4801 100.182 44.0311 98.9226 43.1898C97.6635 42.3485 96.6822 41.1528 96.1027 39.7538C95.5232 38.3548 95.3716 36.8154 95.667 35.3302C95.9625 33.845 96.6916 32.4808 97.7624 31.4101C98.8331 30.3393 100.197 29.6101 101.683 29.3147C103.168 29.0193 104.707 29.1709 106.106 29.7504C107.505 30.3299 108.701 31.3112 109.542 32.5703C110.383 33.8293 110.832 35.3096 110.832 36.8239C110.835 37.8299 110.638 38.8265 110.254 39.7563C109.87 40.6862 109.306 41.5311 108.595 42.2425C107.883 42.9538 107.039 43.5177 106.109 43.9017C105.179 44.2857 104.182 44.4823 103.176 44.4801V44.4801ZM70 49.5824C74.0382 49.5824 77.9858 50.7799 81.3434 53.0234C84.7011 55.2669 87.318 58.4557 88.8634 62.1866C90.4087 65.9174 90.8131 70.0227 90.0253 73.9833C89.2374 77.9439 87.2929 81.582 84.4374 84.4374C81.582 87.2929 77.9439 89.2375 73.9833 90.0253C70.0227 90.8131 65.9174 90.4088 62.1865 88.8634C58.4557 87.318 55.2669 84.7011 53.0234 81.3434C50.7799 77.9858 49.5824 74.0382 49.5824 70C49.5882 64.5867 51.7412 59.3968 55.569 55.569C59.3968 51.7412 64.5867 49.5882 70 49.5824V49.5824ZM70 39.375C63.943 39.375 58.0219 41.1712 52.9857 44.5363C47.9494 47.9014 44.0241 52.6844 41.7062 58.2803C39.3883 63.8763 38.7818 70.034 39.9635 75.9747C41.1451 81.9153 44.0619 87.3722 48.3449 91.6552C52.6279 95.9382 58.0847 98.8549 64.0254 100.037C69.966 101.218 76.1237 100.612 81.7197 98.2938C87.3157 95.9759 92.0986 92.0506 95.4638 87.0144C98.8289 81.9781 100.625 76.0571 100.625 70C100.625 61.8778 97.3985 54.0882 91.6552 48.3449C85.9118 42.6016 78.1223 39.375 70 39.375V39.375Z" fill="white"/>
</svg>
