<svg width="216" height="216" viewBox="0 0 216 216" fill="none" xmlns="http://www.w3.org/2000/svg">
<path d="M108 0C48.357 0 0 48.357 0 108C0 167.643 48.357 216 108 216C167.643 216 216 167.643 216 108C216 48.357 167.643 0 108 0ZM161.046 73.989L143.316 157.509C142.011 163.431 138.483 164.871 133.56 162.081L106.56 142.191L93.546 154.737C92.286 156.357 90.333 157.392 88.146 157.392C88.128 157.392 88.119 157.392 88.101 157.392L90.018 129.906L140.058 84.708C142.218 82.791 139.572 81.702 136.701 83.619L74.88 122.553L48.24 114.237C42.48 112.41 42.318 108.477 49.455 105.651L153.549 65.529C158.391 63.765 162.603 66.681 161.037 73.998L161.046 73.989Z" fill="black"/>
</svg>
