<svg width="132" height="80" viewBox="0 0 132 80" fill="none" xmlns="http://www.w3.org/2000/svg">
<path fill-rule="evenodd" clip-rule="evenodd" d="M128.535 6.09375C129.509 3.00938 128.535 0.767187 124.229 0.767187H109.909C106.296 0.767187 104.629 2.73047 103.655 4.83047C103.655 4.83047 96.2887 22.768 86.002 34.3973C82.666 37.7605 81.1375 38.8816 79.3301 38.8816C78.3567 38.8816 77.1043 37.7605 77.1043 34.6789V5.94883C77.1043 2.30664 75.9941 0.625 72.9344 0.625H50.4141C48.1883 0.625 46.7992 2.30664 46.7992 3.98828C46.7992 7.49102 51.9426 8.3332 52.4977 18.1414V39.4531C52.4977 44.077 51.6774 44.9219 49.8563 44.9219C44.9918 44.9219 33.1766 26.8449 26.0891 6.24687C24.7109 2.16719 23.3109 0.625 19.6961 0.625H5.23945C1.06953 0.625 0.375 2.58555 0.375 4.68828C0.375 8.47266 5.23945 27.5285 23.032 52.7504C34.8473 69.977 51.6664 79.2355 66.8176 79.2355C75.9941 79.2355 77.1043 77.1328 77.1043 73.6301V60.598C77.1043 56.3953 77.9383 55.6953 80.8586 55.6953C82.9422 55.6953 86.6965 56.8137 95.1758 65.0824C104.905 74.8906 106.573 79.375 111.995 79.375H126.312C130.482 79.375 132.429 77.2723 131.316 73.209C130.066 69.1457 125.339 63.2613 119.222 56.2559C115.886 52.3348 110.882 47.9898 109.354 45.8871C107.27 43.0844 107.825 41.9633 109.354 39.4422C109.214 39.4422 126.73 14.4992 128.535 6.08281" fill="white"/>
</svg>
